<svg xmlns="http://www.w3.org/2000/svg" width="29.241" height="52.303"><path data-name="Path 9" d="M10.605 5.837a2.929 2.929 0 002.941-2.9 2.941 2.941 0 00-5.882 0 2.958 2.958 0 002.941 2.9z" fill="#fff"/><path data-name="Path 10" d="M24.394 45.279a3.278 3.278 0 01-4.624-.058 3.552 3.552 0 01-.925-2.428V20.365h.055a9.582 9.582 0 00-2.659-6.705A9.48 9.48 0 000 20.365h6.127a3.269 3.269 0 015.607-2.428 3.3 3.3 0 01.867 1.734v23.3a9.665 9.665 0 002.659 6.474 9.42 9.42 0 0013.353.173c1.85-1.853-.636-7.869-4.219-4.339z" fill="#fff"/></svg>