<svg xmlns="http://www.w3.org/2000/svg" width="327.948" height="86.145" viewBox="0 0 327.948 86.145">
  <g id="Group_460" data-name="Group 460" transform="translate(-16 -139.198)">
    <path id="Path_9" data-name="Path 9" d="M16.334,9.991a5.013,5.013,0,0,0,5.034-4.957,5.034,5.034,0,0,0-10.067,0A5.063,5.063,0,0,0,16.334,9.991Z" transform="translate(13.318 139.198)" fill="#fff"/>
    <path id="Path_10" data-name="Path 10" d="M102.884,32.009a16.164,16.164,0,0,0-3.356-.305c-8.542,0-15.1,6.33-15.406,15.177V78.227a4.384,4.384,0,0,1-1.373,3.279,4.326,4.326,0,0,1-6.1-.076,4.686,4.686,0,0,1-1.22-3.2h0V43.144l-.076-.076a12.306,12.306,0,0,0-3.432-7.55,12.436,12.436,0,0,0-17.389-.458,12.536,12.536,0,0,0-17.236.229A12.3,12.3,0,0,0,33.558,43.3l-.076.076V62.364h0a4.313,4.313,0,0,1-7.4,3.2,4.686,4.686,0,0,1-1.22-3.2h0V32.772h.076a12.643,12.643,0,0,0-3.508-8.847A12.507,12.507,0,0,0,0,32.772H8.084a4.313,4.313,0,0,1,7.4-3.2,4.359,4.359,0,0,1,1.144,2.288V62.592h0a12.752,12.752,0,0,0,3.508,8.542,12.432,12.432,0,0,0,21.355-8.618h0V44.365h.076a4.313,4.313,0,0,1,7.4-3.2,4.464,4.464,0,0,1,1.068,2.059,2.111,2.111,0,0,1,.076.686v.458h0v18.3h8.237V44.441h0a4.313,4.313,0,0,1,7.4-3.2,4.686,4.686,0,0,1,1.22,3.2h.076V78.3h0a12.643,12.643,0,0,0,3.508,8.847,12.429,12.429,0,0,0,17.618.229,12.679,12.679,0,0,0,3.89-8.389V61.753a16.611,16.611,0,0,0,10.6,1.449c7.245-.915,12.05-7.093,12.2-15.177v-.381h0C115.011,39.178,110.587,32.848,102.884,32.009ZM107,47.568c0,5.339-3.28,8.466-7.474,8.466-4.118,0-7.474-3.2-7.474-8.466s3.356-8.389,7.474-8.389C103.723,39.178,107,42.305,107,47.568Z" transform="translate(16 134.416)" fill="#fff"/>
    <path id="Path_11" data-name="Path 11" d="M205.811,35.2c-9,0-15.711,6.635-15.711,15.94,0,9.228,6.788,15.94,15.711,15.94s15.711-6.712,15.711-15.94S214.811,35.2,205.811,35.2Zm0,24.482c-3.966,0-7.627-2.9-7.627-8.542s3.661-8.542,7.627-8.542,7.627,2.9,7.627,8.542S209.777,59.682,205.811,59.682Z" transform="translate(-29.116 130.844)" fill="#fff"/>
    <path id="Path_12" data-name="Path 12" d="M181.685,37.954a16.034,16.034,0,0,0-7.4-1.754,15.332,15.332,0,0,0-15.711,14.948H158.5v.991h0V66.554h8.161V51.225h-.076c.381-5.034,3.89-7.55,7.55-7.55a7.641,7.641,0,0,1,3.89,1.068A27.538,27.538,0,0,1,181.685,37.954Z" transform="translate(-21.617 130.606)" fill="#fff"/>
    <path id="Path_13" data-name="Path 13" d="M307.951,35.605a16.165,16.165,0,0,0-3.356-.305c-8.542,0-15.1,6.33-15.406,15.177v12.66h0V81.823a4.384,4.384,0,0,1-1.373,3.28,4.326,4.326,0,0,1-6.1-.076,4.686,4.686,0,0,1-1.22-3.2h0V63.061h0V46.74c0-.076-.076-.076-.076-.153a12.745,12.745,0,0,0-3.432-7.474,12.436,12.436,0,0,0-17.389-.458h0a12.436,12.436,0,0,0-17.389.458,12.112,12.112,0,0,0-3.432,7.474c0,.076-.076.076-.076.153v19.3h8.084V47.96h.076a4.686,4.686,0,0,1,1.22-3.2,4.26,4.26,0,0,1,6.1-.076c.076.076.152.229.305.305a6.177,6.177,0,0,1,.991,3.585V66.112h8.237V48.57a6.8,6.8,0,0,1,.992-3.585c.076-.076.152-.229.3-.305a4.326,4.326,0,0,1,6.1.076,4.687,4.687,0,0,1,1.22,3.2h.076V81.747h0a12.642,12.642,0,0,0,3.508,8.847,12.577,12.577,0,0,0,21.355-6.94h0a3.861,3.861,0,0,0,.152-.991V65.349a16.611,16.611,0,0,0,10.6,1.449c7.245-.915,12.05-7.093,12.2-15.177V51.24h0C320.077,42.774,315.654,36.444,307.951,35.605Zm-3.28,24.024c-4.118,0-7.474-3.2-7.474-8.466s3.356-8.389,7.474-8.389,7.474,3.127,7.474,8.389C312.069,56.579,308.789,59.629,304.671,59.629Z" transform="translate(-40.65 130.82)" fill="#fff"/>
    <path id="Path_14" data-name="Path 14" d="M359.6,1.2h-7.322V5.395c0,2.669-1.449,4.729-4.652,4.729H346.1v7.169h5.415v31.88c0,5.8,3.661,9.3,9.533,9.3a12.056,12.056,0,0,0,4.576-.763V51a10.42,10.42,0,0,1-2.517.229c-2.288,0-3.508-.839-3.508-3.508V17.216h6.025V10.047H359.6Z" transform="translate(-66.14 138.913)" fill="#fff"/>
    <path id="Path_15" data-name="Path 15" d="M421.834,62.7a5,5,0,1,0,0,9.991,5,5,0,1,0,0-9.991Z" transform="translate(-82.919 124.317)" fill="#fff"/>
    <path id="Path_16" data-name="Path 16" d="M402.387,36.376,394.3,36.3V53.841a4.41,4.41,0,0,1-1.3,2.746,4.326,4.326,0,0,1-6.1-.076,4.688,4.688,0,0,1-1.22-3.2h0V36.376H377.6V53.231h0V54.3h0a12.572,12.572,0,0,0,3.508,7.779,12.429,12.429,0,0,0,17.618.229,12,12,0,0,0,3.661-7.627h.076V53.231h0V36.376Z" transform="translate(-73.616 130.583)" fill="#fff"/>
  </g>
</svg>
